<svg width="409" height="124" viewBox="0 0 409 124" fill="none" xmlns="http://www.w3.org/2000/svg">
<path d="M84.71 107.333C76.7564 103.218 69.5279 92.1153 69.5279 83.9767C69.5279 81.2182 68.9614 80.4773 66.4122 79.9187C64.7014 79.5312 61.1098 78.5281 58.436 77.6618C53.6095 76.1115 53.5641 76.1229 52.3971 79.1892C50.3804 84.5352 46.8795 100.345 46.8795 104.209L46.8682 107.914H27.6074V102.203C27.6074 96.1733 30.893 79.8047 33.7028 71.8142L35.3683 67.0724L27.1202 60.256C22.5769 56.5058 17.773 51.8893 16.4361 49.9971L14.0002 46.5661L28.4344 33.811L35.5383 40.6616C39.4471 44.4232 42.9593 47.5008 43.3672 47.5008C43.7637 47.5008 45.1007 45.5972 46.3243 43.2719C50.5731 35.2586 57.269 27.9406 64.8034 23.0734C75.4761 16.1658 82.7159 14 95.0202 14C110.202 14 119.595 18.8901 125.407 29.8328C128.885 36.3643 128.863 50.6924 125.35 57.3379C120.037 67.4143 109.273 75.2111 96.1532 78.4597C88.9927 80.2379 88.4942 80.6824 89.4459 84.501C90.9641 90.5879 98.9516 91.534 108.231 86.7238C111.199 85.1849 111.347 85.2989 116.921 92.8107C120.037 97.0282 122.382 100.801 122.133 101.2C121.895 101.599 118.745 103.354 115.153 105.11C106.894 109.122 90.5222 110.319 84.71 107.333ZM90.5335 59.4238C99.1669 57.1669 104.922 53.337 107.336 48.2189C109.67 43.2833 108.854 39.1798 104.934 36.0793C102.736 34.3467 100.357 33.8224 94.5896 33.8338C82.3194 33.8566 70.627 40.7414 64.2369 51.7183C60.9059 57.4291 61.3138 58.3524 67.8511 59.8912C74.8077 61.5212 83.1124 61.3502 90.5335 59.4238Z" fill="#2B509F"/>
<path d="M159.488 109.768C153.984 109.768 149.088 108.616 144.8 106.312C140.576 104.008 137.216 100.872 134.72 96.904C132.288 92.872 131.072 88.296 131.072 83.176C131.072 77.992 132.288 73.416 134.72 69.448C137.216 65.416 140.576 62.28 144.8 60.04C149.088 57.736 153.984 56.584 159.488 56.584C164.928 56.584 169.792 57.736 174.08 60.04C178.368 62.28 181.728 65.384 184.16 69.352C186.592 73.32 187.808 77.928 187.808 83.176C187.808 88.296 186.592 92.872 184.16 96.904C181.728 100.872 178.368 104.008 174.08 106.312C169.792 108.616 164.928 109.768 159.488 109.768ZM159.488 97.48C161.984 97.48 164.224 96.904 166.208 95.752C168.192 94.6 169.76 92.968 170.912 90.856C172.064 88.68 172.64 86.12 172.64 83.176C172.64 80.168 172.064 77.608 170.912 75.496C169.76 73.384 168.192 71.752 166.208 70.6C164.224 69.448 161.984 68.872 159.488 68.872C156.992 68.872 154.752 69.448 152.768 70.6C150.784 71.752 149.184 73.384 147.968 75.496C146.816 77.608 146.24 80.168 146.24 83.176C146.24 86.12 146.816 88.68 147.968 90.856C149.184 92.968 150.784 94.6 152.768 95.752C154.752 96.904 156.992 97.48 159.488 97.48Z" fill="#2B509F"/>
<path d="M210.428 109L188.732 57.352H204.188L222.236 101.8H214.556L233.276 57.352H247.676L225.884 109H210.428Z" fill="#2B509F"/>
<path d="M278.013 109.768C272.125 109.768 266.941 108.616 262.461 106.312C258.045 104.008 254.621 100.872 252.189 96.904C249.757 92.872 248.541 88.296 248.541 83.176C248.541 77.992 249.725 73.416 252.093 69.448C254.525 65.416 257.821 62.28 261.981 60.04C266.141 57.736 270.845 56.584 276.093 56.584C281.149 56.584 285.693 57.672 289.725 59.848C293.821 61.96 297.053 65.032 299.421 69.064C301.789 73.032 302.973 77.8 302.973 83.368C302.973 83.944 302.941 84.616 302.877 85.384C302.813 86.088 302.749 86.76 302.685 87.4H260.733V78.664H294.813L289.053 81.256C289.053 78.568 288.509 76.232 287.421 74.248C286.333 72.264 284.829 70.728 282.909 69.64C280.989 68.488 278.749 67.912 276.189 67.912C273.629 67.912 271.357 68.488 269.373 69.64C267.453 70.728 265.949 72.296 264.861 74.344C263.773 76.328 263.229 78.696 263.229 81.448V83.752C263.229 86.568 263.837 89.064 265.053 91.24C266.333 93.352 268.093 94.984 270.333 96.136C272.637 97.224 275.325 97.768 278.397 97.768C281.149 97.768 283.549 97.352 285.597 96.52C287.709 95.688 289.629 94.44 291.357 92.776L299.325 101.416C296.957 104.104 293.981 106.184 290.397 107.656C286.813 109.064 282.685 109.768 278.013 109.768Z" fill="#2B509F"/>
<path d="M312.943 109V37.768H327.919V109H312.943Z" fill="#2B509F"/>
<path d="M366.394 109.768C360.89 109.768 355.994 108.616 351.706 106.312C347.482 104.008 344.122 100.872 341.626 96.904C339.194 92.872 337.978 88.296 337.978 83.176C337.978 77.992 339.194 73.416 341.626 69.448C344.122 65.416 347.482 62.28 351.706 60.04C355.994 57.736 360.89 56.584 366.394 56.584C371.834 56.584 376.698 57.736 380.986 60.04C385.274 62.28 388.634 65.384 391.066 69.352C393.498 73.32 394.714 77.928 394.714 83.176C394.714 88.296 393.498 92.872 391.066 96.904C388.634 100.872 385.274 104.008 380.986 106.312C376.698 108.616 371.834 109.768 366.394 109.768ZM366.394 97.48C368.89 97.48 371.13 96.904 373.114 95.752C375.098 94.6 376.666 92.968 377.818 90.856C378.97 88.68 379.546 86.12 379.546 83.176C379.546 80.168 378.97 77.608 377.818 75.496C376.666 73.384 375.098 71.752 373.114 70.6C371.13 69.448 368.89 68.872 366.394 68.872C363.898 68.872 361.658 69.448 359.674 70.6C357.69 71.752 356.09 73.384 354.874 75.496C353.722 77.608 353.146 80.168 353.146 83.176C353.146 86.12 353.722 88.68 354.874 90.856C356.09 92.968 357.69 94.6 359.674 95.752C361.658 96.904 363.898 97.48 366.394 97.48Z" fill="#2B509F"/>
<path d="M312.943 37.768V109H327.919V37.768H312.943ZM276.093 56.584C270.845 56.584 266.141 57.736 261.981 60.04C257.821 62.28 254.525 65.416 252.093 69.448C249.725 73.416 248.541 77.992 248.541 83.176C248.541 88.296 249.757 92.872 252.189 96.904C254.621 100.872 258.045 104.008 262.461 106.312C266.941 108.616 272.125 109.768 278.013 109.768C282.685 109.768 286.813 109.064 290.397 107.656C293.981 106.184 296.957 104.104 299.325 101.416L291.357 92.776C289.629 94.44 287.709 95.688 285.597 96.52C283.549 97.352 281.149 97.768 278.397 97.768C275.325 97.768 272.637 97.224 270.333 96.136C268.093 94.984 266.333 93.352 265.053 91.24C264.391 90.0551 263.91 88.775 263.609 87.4004L302.685 87.4C302.749 86.76 302.813 86.088 302.877 85.384C302.941 84.616 302.973 83.944 302.973 83.368C302.973 77.8 301.789 73.032 299.421 69.064C297.053 65.032 293.821 61.96 289.725 59.848C285.693 57.672 281.149 56.584 276.093 56.584ZM188.732 57.352L210.428 109H225.884L247.676 57.352H233.276L218.466 92.5146L204.188 57.352H188.732ZM146.24 83.176C146.24 80.168 146.816 77.608 147.968 75.496C149.184 73.384 150.784 71.752 152.768 70.6C154.752 69.448 156.992 68.872 159.488 68.872L159.953 68.8789C162.263 68.9464 164.348 69.5201 166.208 70.6C168.192 71.752 169.76 73.384 170.912 75.496C172.064 77.608 172.64 80.168 172.64 83.176C172.64 86.12 172.064 88.68 170.912 90.856L170.692 91.2461C169.563 93.17 168.068 94.6719 166.208 95.752C164.224 96.904 161.984 97.48 159.488 97.48C156.992 97.48 154.752 96.904 152.768 95.752C150.784 94.6 149.184 92.968 147.968 90.856C146.888 88.816 146.315 86.4386 146.247 83.7236L146.24 83.176ZM353.146 83.176C353.146 80.168 353.722 77.608 354.874 75.496C356.09 73.384 357.69 71.752 359.674 70.6C361.658 69.448 363.898 68.872 366.394 68.872L366.86 68.8789C369.169 68.9464 371.254 69.5201 373.114 70.6C375.098 71.752 376.666 73.384 377.818 75.496C378.97 77.608 379.546 80.168 379.546 83.176C379.546 86.12 378.97 88.68 377.818 90.856L377.598 91.2461C376.469 93.17 374.975 94.6719 373.114 95.752C371.13 96.904 368.89 97.48 366.394 97.48C363.898 97.48 361.658 96.904 359.674 95.752C357.69 94.6 356.09 92.968 354.874 90.856C353.794 88.816 353.221 86.4386 353.153 83.7236L353.146 83.176ZM276.189 67.912C278.749 67.912 280.989 68.488 282.909 69.64C284.829 70.728 286.333 72.264 287.421 74.248C288.143 75.5649 288.625 77.0371 288.867 78.6641H263.436C263.685 77.0643 264.159 75.6241 264.861 74.344C265.949 72.296 267.453 70.728 269.373 69.64C271.357 68.488 273.629 67.912 276.189 67.912ZM95.632 33.8379C100.653 33.8924 102.873 34.4551 104.934 36.0793C108.854 39.1798 109.67 43.2833 107.336 48.2189C104.922 53.337 99.1669 57.1669 90.5335 59.4238C83.3443 61.29 75.3256 61.5092 68.507 60.0391L67.8511 59.8912C61.7227 58.4486 60.9807 57.5467 63.6564 52.7344L64.2369 51.7183C70.627 40.7414 82.3194 33.8566 94.5896 33.8338L94.6046 42.3242L94.6056 42.3232L94.5896 33.8338L95.632 33.8379ZM46.8682 107.914L46.8795 104.209C46.8795 100.345 50.3804 84.5352 52.3971 79.1892C53.5641 76.1229 53.6095 76.1115 58.436 77.6618C61.1098 78.5281 64.7014 79.5312 66.4122 79.9187L66.8673 80.0264C69.0299 80.5781 69.5279 81.3907 69.5279 83.9767C69.5279 92.1153 76.7564 103.218 84.71 107.333C90.4315 110.272 106.384 109.158 114.76 105.296L115.153 105.11C118.745 103.354 121.895 101.599 122.133 101.2C122.382 100.801 120.037 97.0282 116.921 92.8107C111.347 85.2989 111.199 85.1849 108.231 86.7238C98.9516 91.534 90.9641 90.5879 89.4459 84.501C88.4942 80.6824 88.9927 80.2379 96.1532 78.4597C109.273 75.2111 120.037 67.4143 125.35 57.3379C128.808 50.7962 128.884 36.81 125.568 30.1445L125.407 29.8328C119.776 19.2321 110.786 14.3119 96.4269 14.0146L95.0202 14C82.7159 14 75.4761 16.1658 64.8034 23.0734L64.0998 23.5371C56.8532 28.3989 50.4403 35.5091 46.3243 43.2719C45.1007 45.5972 43.7637 47.5008 43.3672 47.5008L43.3195 47.4922C42.738 47.3071 39.3242 44.3049 35.5383 40.6616L28.4344 33.811L14.0002 46.5661L16.4361 49.9971C17.773 51.8893 22.5769 56.5058 27.1202 60.256L35.3683 67.0724L33.7028 71.8142L33.4377 72.5869C30.6904 80.8172 27.6074 96.3616 27.6074 102.203V107.914H46.8682ZM341.919 49.5742C342.938 48.9103 343.991 48.2869 345.08 47.707L345.698 47.3818C352.111 44.0748 359.119 42.584 366.395 42.584L366.394 56.584C360.89 56.584 355.994 57.736 351.706 60.04C347.482 62.28 344.122 65.416 341.626 69.448C339.194 73.416 337.978 77.992 337.978 83.176C337.978 88.296 339.194 92.872 341.626 96.904C344.122 100.872 347.482 104.008 351.706 106.312C355.994 108.616 360.89 109.768 366.394 109.768C371.834 109.768 376.698 108.616 380.986 106.312C385.006 104.152 388.211 101.261 390.6 97.6387L391.066 96.904C393.498 92.872 394.714 88.296 394.714 83.176C394.714 78.092 393.574 73.6083 391.291 69.7256L391.066 69.352C388.634 65.384 385.274 62.28 380.986 60.04C376.966 57.88 372.44 56.7326 367.407 56.5977L366.394 56.584L366.395 42.584C373.816 42.584 380.952 44.1624 387.468 47.6309C387.494 47.6444 387.52 47.6583 387.546 47.6719C387.568 47.6837 387.59 47.6952 387.612 47.707C393.988 51.0681 399.222 55.8668 403.003 62.0361C406.951 68.4771 408.714 75.6836 408.714 83.1758C408.714 90.6139 406.917 97.7315 403.055 104.135C403.038 104.163 403.02 104.192 403.003 104.22C399.216 110.399 393.979 115.224 387.612 118.645C381.057 122.167 373.871 123.768 366.395 123.768C358.884 123.768 351.659 122.179 345.08 118.645C345.054 118.631 345.028 118.617 345.002 118.603C343.344 117.698 341.764 116.697 340.266 115.604C337.906 120.005 333.263 123 327.919 123H312.944C308.4 123 304.363 120.835 301.805 117.48C299.881 118.69 297.846 119.732 295.716 120.606C295.65 120.634 295.583 120.66 295.516 120.687C289.994 122.856 284.073 123.768 278.013 123.768C270.273 123.768 262.828 122.243 256.058 118.762C256.034 118.749 256.009 118.737 255.985 118.725C250.414 115.818 245.665 111.853 241.997 106.824L238.783 114.442C236.595 119.629 231.513 123 225.884 123H210.428C204.791 123 199.704 119.619 197.521 114.422L194.338 106.847C190.749 111.781 186.14 115.725 180.706 118.645C174.151 122.167 166.965 123.768 159.488 123.768C151.978 123.768 144.753 122.179 138.174 118.645C138.148 118.631 138.122 118.617 138.096 118.603C135.134 116.987 132.421 115.067 129.981 112.854C129.609 113.121 129.277 113.341 129.032 113.499C128.296 113.974 127.483 114.447 126.735 114.865C125.194 115.727 123.272 116.724 121.301 117.688C121.291 117.692 121.281 117.697 121.271 117.702C114.927 120.784 106.812 122.313 100.034 122.809C96.4883 123.068 92.8184 123.081 89.381 122.741C86.231 122.43 82.0719 121.717 78.3117 119.785C78.3 119.779 78.2881 119.773 78.2765 119.767C71.5767 116.3 66.1235 110.521 62.4005 104.797C61.9621 104.123 61.5297 103.421 61.1086 102.696C60.8853 104.128 60.8791 104.521 60.8791 104.209C60.8791 104.223 60.8791 104.238 60.8791 104.252L60.8683 107.957C60.8446 115.672 54.5834 121.914 46.8683 121.914H27.6076C19.8756 121.914 13.6076 115.646 13.6076 107.914V102.203C13.6076 97.6594 14.7002 90.8464 15.8752 84.9902C16.753 80.6147 17.8612 75.8798 19.05 71.749L18.2013 71.0479C15.6547 68.9454 13.0587 66.6217 10.8781 64.5273C8.99843 62.722 6.53987 60.2525 5.00211 58.0762L5.00308 58.0752L2.58512 54.6709C-1.55806 48.8353 -0.63332 40.8143 4.72965 36.0752L19.1642 23.3203L19.422 23.0977C24.8907 18.4937 32.9804 18.7458 38.1525 23.7334L40.8048 26.291C45.4608 20.4356 51.0795 15.2714 57.2062 11.3135C63.1853 7.44444 68.8928 4.4526 75.2765 2.53711C81.6862 0.613846 88.031 0 95.0207 0C104.027 5.19776e-05 112.597 1.43809 120.195 5.39648C128.007 9.46589 133.716 15.6386 137.763 23.252C141.083 29.4868 142.012 37.401 142 43.5693C141.999 44.3289 141.982 45.1138 141.949 45.918C147.479 43.6313 153.39 42.584 159.488 42.584L159.488 56.584C153.984 56.584 149.088 57.736 144.8 60.04C140.576 62.28 137.216 65.416 134.72 69.448C132.288 73.416 131.072 77.992 131.072 83.176L131.086 84.1299C131.229 88.866 132.44 93.1241 134.72 96.904C137.216 100.872 140.576 104.008 144.8 106.312C149.088 108.616 153.984 109.768 159.488 109.768C164.928 109.768 169.792 108.616 174.08 106.312C178.1 104.152 181.305 101.261 183.694 97.6387L184.16 96.904C186.592 92.872 187.808 88.296 187.808 83.176C187.808 77.928 186.592 73.32 184.16 69.352C181.728 65.384 178.368 62.28 174.08 60.04C170.06 57.88 165.534 56.7326 160.501 56.5977L159.488 56.584L159.488 42.584C166.439 42.584 173.138 43.9685 179.314 46.9932C181.861 44.6772 185.209 43.3516 188.733 43.3516H204.189L204.721 43.3623C210.204 43.57 215.083 46.9706 217.159 52.085L218.702 55.8857L220.374 51.918L220.587 51.4365C222.878 46.5195 227.82 43.3516 233.277 43.3516H247.676C251.138 43.3516 254.429 44.632 256.959 46.873C262.924 43.9407 269.389 42.584 276.093 42.584C283.18 42.584 290.006 44.1192 296.254 47.4639C297.177 47.9438 298.074 48.4567 298.944 49.001V37.7676C298.944 30.0358 305.212 23.7676 312.944 23.7676H327.919C335.651 23.7676 341.919 30.0358 341.919 37.7676V49.5742Z" fill="white"/>
</svg>
