<svg width="146" height="146" viewBox="0 0 146 146" fill="none" xmlns="http://www.w3.org/2000/svg">
<path d="M86.7098 119.333C78.7562 115.218 71.5277 104.115 71.5277 95.9767C71.5277 93.2182 70.9612 92.4773 68.412 91.9187C66.7012 91.5312 63.1096 90.5281 60.4358 89.6618C55.6092 88.1115 55.5639 88.1229 54.3969 91.1892C52.3802 96.5352 48.8793 112.345 48.8793 116.209L48.8679 119.914H29.6071V114.203C29.6071 108.173 32.8928 91.8047 35.7026 83.8142L37.3681 79.0724L29.1199 72.256C24.5767 68.5058 19.7728 63.8893 18.4359 61.9971L15.9999 58.5661L30.4342 45.811L37.538 52.6616C41.4468 56.4232 44.9591 59.5008 45.367 59.5008C45.7635 59.5008 47.1005 57.5972 48.3241 55.2719C52.5728 47.2586 59.2688 39.9406 66.8031 35.0734C77.4759 28.1658 84.7157 26 97.0199 26C112.202 26 121.594 30.8901 127.407 41.8328C130.885 48.3643 130.862 62.6924 127.35 69.3379C122.036 79.4143 111.273 87.2111 98.1529 90.4597C90.9924 92.2379 90.4939 92.6824 91.4456 96.501C92.9639 102.588 100.951 103.534 110.231 98.7238C113.199 97.1849 113.346 97.2989 118.921 104.811C122.036 109.028 124.382 112.801 124.132 113.2C123.894 113.599 120.745 115.354 117.153 117.11C108.894 121.122 92.522 122.319 86.7098 119.333ZM92.5333 71.4238C101.167 69.1669 106.922 65.337 109.336 60.2189C111.669 55.2833 110.854 51.1798 106.934 48.0793C104.736 46.3467 102.356 45.8224 96.5894 45.8338C84.3191 45.8566 72.6267 52.7414 66.2367 63.7183C62.9057 69.4291 63.3135 70.3524 69.8509 71.8912C76.8074 73.5212 85.1122 73.3502 92.5333 71.4238Z" fill="#2B509F"/>
<path d="M97.0204 13C105.926 13.0001 114.322 14.4225 121.733 18.2832C129.346 22.2492 134.922 28.2681 138.888 35.7344C142.09 41.7554 143.011 49.4701 143 55.5674C142.988 61.6889 142.028 69.3768 138.849 75.4004L138.85 75.4014C135.525 81.7051 130.803 87.1504 125.152 91.5928C125.37 91.8515 125.566 92.0877 125.734 92.2959C126.261 92.9467 126.833 93.6883 127.44 94.4922L129.36 97.0635L129.377 97.0859C131.082 99.3941 132.656 101.686 133.83 103.576C134.39 104.478 135.018 105.541 135.531 106.586C135.76 107.052 136.184 107.95 136.525 109.05C136.687 109.573 136.989 110.636 137.103 111.999C137.181 112.924 137.414 116.309 135.296 119.857L135.298 119.858C135.268 119.908 135.238 119.957 135.208 120.005C135.191 120.032 135.174 120.06 135.157 120.088L135.156 120.087C134.271 121.503 133.322 122.416 133.013 122.711C132.545 123.156 132.125 123.492 131.862 123.695C131.33 124.106 130.829 124.441 130.49 124.659C129.779 125.118 128.986 125.578 128.246 125.992C126.725 126.843 124.819 127.832 122.861 128.789C122.852 128.794 122.843 128.798 122.834 128.803C116.648 131.808 108.672 133.321 101.961 133.812C98.4591 134.067 94.8485 134.079 91.4794 133.746C88.3772 133.44 84.364 132.743 80.7685 130.896C80.7577 130.89 80.747 130.884 80.7362 130.879C74.2306 127.513 68.8954 121.874 65.2382 116.251C64.3198 114.839 63.4324 113.312 62.62 111.696C62.4916 112.372 62.3739 113.012 62.2724 113.607C61.9016 115.782 61.8788 116.484 61.8788 116.209C61.8788 116.222 61.8789 116.236 61.8788 116.249L61.8681 119.954C61.846 127.118 56.0321 132.914 48.8681 132.914H29.6073C22.4277 132.914 16.6074 127.094 16.6073 119.914V114.203C16.6073 109.769 17.6806 103.042 18.8554 97.1865C19.7761 92.5975 20.9459 87.6289 22.1923 83.3945L20.8388 82.2764C18.3117 80.1901 15.7334 77.8833 13.5702 75.8057C11.6865 73.9965 9.2939 71.5875 7.81828 69.499L7.81925 69.498L5.40031 66.0918C1.55179 60.6712 2.4129 53.2202 7.3964 48.8203L21.8212 36.0732C26.8997 31.5815 34.5776 31.747 39.4579 36.4531L42.9091 39.7812C47.6263 33.6525 53.4139 28.2458 59.7489 24.1533C65.6819 20.3141 71.3014 17.3741 77.5634 15.4951C83.8497 13.6089 90.0905 13 97.0204 13ZM97.6318 45.8379C102.653 45.8924 104.873 46.4551 106.934 48.0793C110.854 51.1798 111.669 55.2833 109.336 60.2189C106.922 65.337 101.167 69.1669 92.5333 71.4238C85.3441 73.29 77.3254 73.5092 70.5068 72.0391L69.8509 71.8912C63.7225 70.4486 62.9804 69.5467 65.6562 64.7344L66.2367 63.7183C72.6267 52.7414 84.3191 45.8566 96.5894 45.8338L97.6318 45.8379ZM48.8679 119.914L48.8793 116.209C48.8793 112.345 52.3802 96.5352 54.3969 91.1892C55.5639 88.1229 55.6092 88.1115 60.4358 89.6618C63.1096 90.5281 66.7012 91.5312 68.412 91.9187L68.8671 92.0264C71.0297 92.5781 71.5277 93.3907 71.5277 95.9767C71.5277 104.115 78.7562 115.218 86.7098 119.333C92.4313 122.272 108.384 121.158 116.76 117.296L117.153 117.11C120.745 115.354 123.894 113.599 124.132 113.2C124.382 112.801 122.036 109.028 118.921 104.811C113.346 97.2989 113.199 97.1849 110.231 98.7238C100.951 103.534 92.9639 102.588 91.4456 96.501C90.4939 92.6824 90.9924 92.2379 98.1529 90.4597C111.273 87.2111 122.036 79.4143 127.35 69.3379C130.807 62.7962 130.884 48.81 127.567 42.1445L127.407 41.8328C121.776 31.2321 112.786 26.3119 98.4267 26.0146L97.0199 26C84.7157 26 77.4759 28.1658 66.8031 35.0734L66.0995 35.5371C58.853 40.3989 52.4401 47.5091 48.3241 55.2719L47.8622 56.1211C46.7813 58.0431 45.7141 59.5004 45.367 59.5008L45.3193 59.4922C44.7378 59.3071 41.324 56.3049 37.538 52.6616L30.4342 45.811L15.9999 58.5661L18.4359 61.9971C19.7728 63.8893 24.5767 68.5058 29.1199 72.256L37.3681 79.0724L35.7026 83.8142L35.4374 84.5869C32.6901 92.8172 29.6071 108.362 29.6071 114.203V119.914H48.8679Z" fill="white"/>
</svg>
